<svg width="448" height="230" viewBox="0 0 448 230" fill="none" xmlns="http://www.w3.org/2000/svg">
<path fill-rule="evenodd" clip-rule="evenodd" d="M211.879 38.1549H208.297V34.5823L211.879 34.5823V38.1549ZM211.879 34.5823L236.412 34.5821V15.9503L224.145 26.4769L211.879 15.9503V34.5823ZM243.576 41.7273H208.297H204.715V0.378119L224.146 17.0511L243.576 0.37674V41.7273ZM20.2855 84.8781L0.541199 68.3813V109.678H7.70337V83.892L20.2855 94.6924L32.2762 83.9489V109.678H39.3815V68.3813L20.2855 84.8781ZM120.829 195.639C114.627 195.639 109.911 191.659 109.911 185.211C109.911 179.344 114.363 174.786 120.508 174.786V176.298C115.558 176.298 111.596 180.015 111.596 185.211C111.596 190.702 115.736 194.128 120.829 194.128V195.639ZM136.433 174.786C142.229 174.786 146.653 179.142 146.653 185.211C146.653 191.195 142.229 195.639 136.433 195.639C130.636 195.639 126.212 191.283 126.212 185.211C126.212 179.316 130.551 174.786 136.433 174.786ZM136.433 194.128C141.412 194.128 144.961 190.265 144.961 185.211C144.961 180.071 141.234 176.298 136.433 176.298C131.596 176.298 127.898 180.071 127.898 185.211C127.898 190.294 131.625 194.128 136.433 194.128ZM170.7 186.867C170.7 193.082 167.087 195.611 162.983 195.611C158.239 195.611 154.711 192.617 154.711 186.665V175.049H156.319V186.374C156.319 191.312 158.965 194.1 162.983 194.1C166.568 194.1 169.1 191.716 169.1 186.52V175.049H170.7V186.867ZM181.802 178.766V195.376H180.287V174.786L195.515 191.716V175.049H197.03V195.639L181.802 178.766ZM204.17 175.049H216.198V176.556H210.984V195.376H209.384V176.556H204.17V175.049ZM223.338 195.376V175.049H224.739C229.981 175.049 231.987 178.475 231.987 181.494C231.987 183.062 231.404 184.633 230.244 185.881L236.937 195.376H235.131L229.106 186.896C227.997 187.651 226.631 188.144 224.946 188.29V195.376H223.338ZM224.946 186.779C228.352 186.491 230.301 184.253 230.301 181.465C230.301 178.823 228.466 176.556 224.946 176.556V186.779ZM248.061 186.491V195.376H246.46V186.491L239.206 175.049H241.069L247.328 184.98L253.623 175.049H255.394L248.061 186.491ZM270.059 185.211C270.059 191.659 274.775 195.639 280.977 195.639V194.128C275.884 194.128 271.752 190.702 271.752 185.211C271.752 180.015 275.706 176.298 280.656 176.298V174.786C274.512 174.786 270.059 179.344 270.059 185.211ZM290.585 175.049H288.978V195.376H298.096V193.866H290.585V175.049ZM312.335 195.611C316.439 195.611 320.052 193.082 320.052 186.867V175.049H318.451V186.52C318.451 191.716 315.919 194.1 312.335 194.1C308.316 194.1 305.67 191.312 305.67 186.374V175.049H304.063V186.665C304.063 192.617 307.591 195.611 312.335 195.611ZM331.361 175.049H329.639V195.376H331.125C335.642 195.376 338.38 193.316 338.38 189.684C338.38 186.924 336.573 185.183 333.921 184.806V184.746C335.812 184.313 337.883 182.657 337.883 180.071C337.883 177.372 336.076 175.049 331.361 175.049ZM331.247 184.282V176.556H331.652C334.682 176.556 336.282 178.096 336.282 180.334C336.282 182.803 334.041 184.282 331.737 184.282H331.247ZM331.247 193.866V185.708H331.652C334.938 185.708 336.773 187.247 336.773 189.599C336.773 192.096 334.824 193.866 331.538 193.866H331.247ZM74.5365 68.3758C62.0207 68.3758 53.3434 77.5551 53.3434 89.3568C53.3434 101.998 62.4149 110.311 74.5365 110.311C86.6584 110.311 95.7824 101.552 95.7824 89.3568C95.7824 76.6891 86.6584 68.3758 74.5365 68.3758ZM74.5365 103.65C66.9115 103.65 60.9164 97.4864 60.9164 89.3568C60.9164 80.9379 66.7274 75.0635 74.5365 75.0635C82.2143 75.0635 88.2099 80.9379 88.2099 89.3568C88.2099 97.3556 83.0821 103.65 74.5365 103.65ZM130.726 110.317C117.504 110.317 107.895 102.535 107.895 89.3511C107.895 77.4438 116.515 68.3813 129.907 68.3813V75.06C122.34 75.06 115.469 80.2316 115.469 89.3511C115.469 98.4701 122.396 103.638 130.726 103.638V110.317ZM151.707 69.0235H144.545V109.678H151.707V101.258L158.755 92.3123L168.655 109.678H177.446L163.876 86.0984L176.4 69.0235H167.781L151.707 90.7449V69.0235ZM244.404 68.3758C231.862 68.3758 223.185 77.5551 223.185 89.3568C223.185 101.998 232.283 110.311 244.404 110.311C256.499 110.311 265.65 101.552 265.65 89.3568C265.65 76.6891 256.499 68.3758 244.404 68.3758ZM244.404 103.65C236.752 103.65 230.758 97.4864 230.758 89.3568C230.758 80.9379 236.595 75.0635 244.404 75.0635C252.082 75.0635 258.077 80.9379 258.077 89.3568C258.077 97.3556 252.95 103.65 244.404 103.65ZM204.365 88.3074V88.1765C207.625 86.6815 210.176 83.5346 210.176 79.3118C210.176 73.4374 205.758 69.0315 195.793 69.0315H189.692V109.682H194.978C205.469 109.682 210.938 105.8 210.938 97.7229C210.938 92.7661 207.73 89.2782 204.365 88.3074ZM196.844 75.6928H197.265C200.683 75.6928 203.076 77.4502 203.076 80.7022C203.076 84.295 199.974 85.9735 197.423 85.9735H196.844V75.6928ZM197.318 102.994L196.844 102.942V92.1893H197.712C201.025 92.1893 203.786 93.9987 203.786 97.3556C203.786 100.844 201.025 102.942 197.318 102.994ZM283.838 69.0315H277.896V109.682H285.074V97.5918C294.093 96.3854 299.641 89.8812 299.641 82.9576C299.641 76.2698 295.145 69.0315 283.838 69.0315ZM285.074 90.93V75.6928C289.387 75.6928 292.069 78.709 292.069 82.9049C292.069 87.4423 289.098 90.4059 285.074 90.93ZM313.754 69.0235H333.149V75.7022H320.915V85.8075H331.222V92.4862H320.915V103H333.554V109.678H313.754V69.0235ZM368.782 109.678H375.944V69.0235H368.782V86.5025C366.74 87.8963 364.123 89.1167 360.98 89.1167C356.961 89.1167 353.817 87.2581 353.817 80.753V69.0235H346.655V82.7855C346.655 92.4862 352.886 95.7957 359.052 95.7957C363.426 95.7957 366.861 94.4017 368.782 93.0076V109.678ZM399.717 81.0952V69.0315H392.565V109.682H397.64C409.814 109.682 414.284 101.84 414.284 95.1526C414.284 88.2551 409.394 81.8036 399.717 81.0952ZM399.717 102.994V87.7832C403.924 88.2551 406.711 90.9827 406.711 95.2048C406.711 99.4536 404.029 102.994 399.717 102.994ZM427.949 69.0235H447.344V75.7022H435.111V85.8075H445.417V92.4862H435.111V103H447.75V109.678H427.949V69.0235ZM367.364 129.229C373.452 129.225 379.573 131.556 384.219 136.192L384.22 136.192L379.154 141.244C375.888 137.99 371.642 136.378 367.364 136.374C363.085 136.378 358.839 137.991 355.575 141.245C350.93 145.88 344.808 148.212 338.721 148.208C332.632 148.212 326.51 145.88 321.866 141.244C318.601 137.991 314.354 136.378 310.077 136.374C305.798 136.378 301.551 137.991 298.287 141.245C293.643 145.88 287.521 148.212 281.433 148.208C275.344 148.212 269.222 145.88 264.578 141.244C261.313 137.991 257.067 136.378 252.789 136.374C248.51 136.378 244.264 137.991 241 141.245C236.355 145.88 230.233 148.212 224.145 148.208C218.056 148.212 211.935 145.88 207.291 141.244C204.026 137.991 199.78 136.378 195.502 136.374C191.223 136.378 186.976 137.991 183.712 141.245C179.067 145.88 172.945 148.212 166.858 148.208C160.769 148.212 154.647 145.88 150.003 141.244C146.737 137.99 142.492 136.378 138.213 136.374C133.935 136.378 129.689 137.991 126.425 141.245C121.779 145.88 115.657 148.212 109.571 148.208C103.481 148.212 97.3594 145.88 92.7159 141.244C89.4504 137.99 85.2047 136.378 80.9263 136.374C76.647 136.378 72.4017 137.991 69.1381 141.244L64.0716 136.192C68.716 131.556 74.8375 129.225 80.9263 129.229C87.0142 129.225 93.1356 131.556 97.7814 136.192C101.045 139.445 105.291 141.059 109.571 141.063C113.848 141.059 118.095 139.446 121.359 136.192C126.004 131.556 132.125 129.225 138.213 129.229C144.302 129.225 150.423 131.556 155.069 136.192C158.333 139.445 162.579 141.059 166.858 141.063C171.136 141.059 175.382 139.446 178.647 136.192C183.291 131.556 189.413 129.225 195.502 129.229C201.589 129.225 207.711 131.556 212.357 136.192C215.621 139.446 219.866 141.059 224.145 141.063C228.424 141.059 232.669 139.446 235.934 136.192C240.579 131.556 246.701 129.225 252.789 129.229C258.877 129.225 264.998 131.556 269.644 136.192C272.908 139.446 277.154 141.059 281.433 141.063C285.711 141.059 289.956 139.446 293.222 136.192C297.866 131.556 303.988 129.225 310.077 129.229C316.164 129.225 322.286 131.556 326.932 136.192C330.196 139.445 334.442 141.059 338.721 141.063C342.999 141.059 347.245 139.446 350.509 136.192C355.154 131.556 361.275 129.225 367.364 129.229ZM210.181 222.079V229.224H238.11V222.079H210.181Z" fill="white"/>
</svg>
