<svg width="51" height="51" viewBox="0 0 51 51" fill="none" xmlns="http://www.w3.org/2000/svg">
<path id="Combined shape 9" fill-rule="evenodd" clip-rule="evenodd" d="M25.487 0.26418C11.659 0.26418 0.448902 11.4741 0.448902 25.3024C0.448902 39.1304 11.659 50.3403 25.487 50.3403C39.3151 50.3403 50.525 39.1304 50.525 25.3024C50.525 11.4741 39.3151 0.26418 25.487 0.26418ZM36.4603 16.6056C36.1084 20.303 34.586 29.2757 33.8111 33.4169C33.4832 35.1693 32.8381 35.757 32.2131 35.8142C30.8549 35.9392 29.8239 34.9172 28.5089 34.055C26.4508 32.7057 25.2881 31.8659 23.2904 30.5495C20.9816 29.0281 22.4782 28.1918 23.7939 26.8252C24.1384 26.4676 30.1215 21.0256 30.2373 20.532C30.2518 20.4702 30.2652 20.2402 30.1285 20.1186C29.9918 19.997 29.7897 20.0387 29.6442 20.0716C29.4378 20.1186 26.1501 22.2915 19.7806 26.5909C18.8475 27.2319 18.0024 27.5438 17.2448 27.5276C16.41 27.5096 14.8041 27.0556 13.61 26.6676C12.1454 26.1913 10.9816 25.9398 11.0831 25.1314C11.1361 24.7102 11.7158 24.2796 12.8227 23.8393C19.6396 20.8694 24.1851 18.9113 26.4597 17.9655C32.9537 15.2645 34.303 14.7953 35.1823 14.7796C35.3759 14.7765 35.8084 14.8242 36.0886 15.0517C36.3253 15.2436 36.39 15.5029 36.4214 15.6848C36.4525 15.8669 36.4914 16.2813 36.4603 16.6056Z" fill="#B08B49"/>
</svg>
