<svg width="51" height="51" viewBox="0 0 51 51" fill="none" xmlns="http://www.w3.org/2000/svg">
<path id="Combined shape 8" fill-rule="evenodd" clip-rule="evenodd" d="M25.9071 0.281367C12.079 0.281367 0.869091 11.4913 0.869091 25.3197C0.869091 39.1476 12.079 50.3576 25.9071 50.3576C39.7352 50.3576 50.9452 39.1476 50.9452 25.3197C50.9452 11.4913 39.7352 0.281367 25.9071 0.281367ZM34.9686 34.0825C33.8984 30.7493 31.2319 28.1702 27.7054 27.8193V34.0825H27.1614C17.5646 34.0825 12.091 27.5038 11.8629 16.556H16.6697C16.828 24.5914 20.3717 27.9949 23.1789 28.6966V16.556H27.7054V23.4859C30.4772 23.1878 33.3893 20.0298 34.3719 16.556H38.8981C38.1439 20.8368 34.986 23.9947 32.7403 25.2931C34.986 26.3456 38.5826 29.1001 39.9515 34.0825H34.9686Z" fill="#B08B49"/>
</svg>
